<svg xmlns="http://www.w3.org/2000/svg" xmlns:xlink="http://www.w3.org/1999/xlink" viewBox="0 0 2125.98 1417.32"><defs><style>.cls-1,.cls-5,.cls-6{fill:none;}.cls-2{fill:#ccc7c4;}.cls-3{fill:#8d8482;}.cls-4{fill:#fffffc;}.cls-5{stroke:#97928f;}.cls-5,.cls-6{stroke-miterlimit:10;stroke-width:2px;}.cls-6{stroke:#fffffc;}.cls-7{fill:url(#linear-gradient);}.cls-8{fill:url(#linear-gradient-2);}.cls-9{fill:url(#linear-gradient-3);}.cls-10{fill:url(#linear-gradient-4);}</style><linearGradient id="linear-gradient" x1="893.51" y1="452.53" x2="893.51" y2="682.14" gradientTransform="translate(-4.07 1004.3)" gradientUnits="userSpaceOnUse"><stop offset="0" stop-color="#493d3c" stop-opacity="0.6"/><stop offset="0.08" stop-color="#534847" stop-opacity="0.51"/><stop offset="0.39" stop-color="#736967" stop-opacity="0.23"/><stop offset="0.7" stop-color="#877d7b" stop-opacity="0.06"/><stop offset="1" stop-color="#8d8482" stop-opacity="0"/></linearGradient><linearGradient id="linear-gradient-2" x1="1392.95" y1="1647.81" x2="1392.95" y2="1676.16" gradientTransform="translate(-857.84 -1095.23)" gradientUnits="userSpaceOnUse"><stop offset="0" stop-color="#493d3c"/><stop offset="0.05" stop-color="#4f4443" stop-opacity="0.91"/><stop offset="0.29" stop-color="#6a605e" stop-opacity="0.51"/><stop offset="0.53" stop-color="#7e7472" stop-opacity="0.23"/><stop offset="0.77" stop-color="#89807e" stop-opacity="0.06"/><stop offset="1" stop-color="#8d8482" stop-opacity="0"/></linearGradient><linearGradient id="linear-gradient-3" x1="-297.04" y1="452.53" x2="-297.04" y2="682.14" gradientTransform="translate(2377.03 1004.29)" xlink:href="#linear-gradient"/><linearGradient id="linear-gradient-4" x1="2583.5" y1="1647.81" x2="2583.5" y2="1676.15" xlink:href="#linear-gradient-2"/></defs><g id="Export_Screen_Scale" data-name="Export Screen Scale"><rect class="cls-1" width="2125.98" height="1417.32"/></g><g id="Vertical_Rails" data-name="Vertical Rails"><rect class="cls-2" x="506.77" y="552.58" width="56.69" height="425.2"/><rect class="cls-3" x="525.69" y="552.58" width="17.01" height="425.2"/><rect class="cls-4" x="506.77" y="552.58" width="5.67" height="425.2"/><rect class="cls-3" x="557.79" y="552.58" width="5.67" height="425.2"/><line class="cls-5" x1="525.69" y1="552.58" x2="525.69" y2="977.78"/><line class="cls-6" x1="542.69" y1="552.58" x2="542.69" y2="977.77"/><rect class="cls-7" x="861.1" y="1456.83" width="56.69" height="229.61" transform="translate(1424.56 2434.6) rotate(180)"/><rect class="cls-8" x="506.77" y="552.58" width="56.69" height="28.35"/><rect class="cls-2" x="1697.32" y="552.58" width="56.69" height="425.2"/><rect class="cls-3" x="1716.24" y="552.58" width="17.01" height="425.2"/><rect class="cls-4" x="1697.32" y="552.58" width="5.67" height="425.2"/><rect class="cls-3" x="1748.34" y="552.58" width="5.67" height="425.2"/><line class="cls-5" x1="1716.24" y1="552.58" x2="1716.24" y2="977.77"/><line class="cls-6" x1="1733.25" y1="552.58" x2="1733.25" y2="977.77"/><rect class="cls-9" x="2051.65" y="1456.82" width="56.69" height="229.61" transform="translate(3805.66 2434.6) rotate(180)"/><rect class="cls-10" x="1697.32" y="552.58" width="56.69" height="28.35"/></g></svg>