<svg xmlns="http://www.w3.org/2000/svg" xmlns:xlink="http://www.w3.org/1999/xlink" viewBox="0 0 2125.98 2551.18"><defs><style>.cls-1,.cls-14,.cls-19,.cls-20{fill:none;}.cls-2{fill:url(#linear-gradient);}.cls-3{clip-path:url(#clip-path);}.cls-4{fill:url(#radial-gradient);}.cls-5{fill:url(#linear-gradient-2);}.cls-6{clip-path:url(#clip-path-2);}.cls-7{fill:url(#radial-gradient-2);}.cls-8{fill:url(#linear-gradient-3);}.cls-9{fill:#59504e;}.cls-10{fill:url(#linear-gradient-4);}.cls-11{fill:#bfb6ae;}.cls-12{fill:#31312d;}.cls-13{fill:#272821;}.cls-14{stroke:#fdf5e9;}.cls-14,.cls-19,.cls-20{stroke-miterlimit:10;stroke-width:2px;}.cls-15{fill:url(#linear-gradient-5);}.cls-16{fill:url(#linear-gradient-6);}.cls-17{fill:url(#linear-gradient-7);}.cls-18{fill:#cacaca;}.cls-19{stroke:#645a59;}.cls-20{stroke:#464647;}.cls-21{fill:url(#linear-gradient-8);}.cls-22{fill:url(#linear-gradient-9);}.cls-23{fill:url(#linear-gradient-10);}.cls-24{fill:#cccdc8;}.cls-25{fill:url(#linear-gradient-11);}.cls-26{fill:url(#linear-gradient-12);}.cls-27{fill:url(#linear-gradient-13);}.cls-28{fill:url(#linear-gradient-14);}.cls-29{fill:url(#linear-gradient-15);}.cls-30{fill:url(#linear-gradient-16);}.cls-31{fill:url(#linear-gradient-17);}.cls-32{fill:#4e5352;}.cls-33{fill:#646368;}.cls-34{fill:url(#linear-gradient-18);}.cls-35{fill:url(#linear-gradient-19);}.cls-36{fill:#b9b4b6;}.cls-37{fill:url(#linear-gradient-20);}.cls-38{fill:#cfcfcf;}.cls-39{fill:url(#linear-gradient-21);}.cls-40{fill:url(#linear-gradient-22);}.cls-41{fill:url(#linear-gradient-23);}.cls-42{fill:url(#linear-gradient-24);}.cls-43{fill:url(#linear-gradient-25);}</style><linearGradient id="linear-gradient" x1="1075.49" y1="1838.9" x2="1081.16" y2="1838.9" gradientTransform="matrix(1, 0, 0, -1, -354.33, 3664.59)" gradientUnits="userSpaceOnUse"><stop offset="0" stop-color="#493d3c"/><stop offset="0.07" stop-color="#524745" stop-opacity="0.87"/><stop offset="0.3" stop-color="#6c6160" stop-opacity="0.49"/><stop offset="0.53" stop-color="#7e7573" stop-opacity="0.22"/><stop offset="0.76" stop-color="#89807e" stop-opacity="0.05"/><stop offset="1" stop-color="#8d8482" stop-opacity="0"/></linearGradient><clipPath id="clip-path" transform="translate(-354.33 -141.73)"><rect id="SVGID" class="cls-1" x="1066.4" y="1938.73" width="14.84" height="9.2"/></clipPath><radialGradient id="radial-gradient" cx="1066.4" cy="1858.39" r="14.87" gradientTransform="matrix(1, 0, 0, -1, -354.33, 3664.59)" gradientUnits="userSpaceOnUse"><stop offset="0.62" stop-color="#493d3c"/><stop offset="0.64" stop-color="#524645" stop-opacity="0.87"/><stop offset="0.73" stop-color="#6c6160" stop-opacity="0.49"/><stop offset="0.82" stop-color="#7e7573" stop-opacity="0.22"/><stop offset="0.91" stop-color="#89807e" stop-opacity="0.05"/><stop offset="1" stop-color="#8d8482" stop-opacity="0"/></radialGradient><linearGradient id="linear-gradient-2" x1="721.16" y1="1365.78" x2="726.83" y2="1365.78" gradientTransform="matrix(1, 0, 0, 1, 0, 0)" xlink:href="#linear-gradient"/><clipPath id="clip-path-2" transform="translate(-354.33 -141.73)"><rect id="SVGID-2" data-name="SVGID" class="cls-1" x="1066.29" y="1527" width="14.84" height="9.2"/></clipPath><radialGradient id="radial-gradient-2" cx="711.95" cy="1385.27" r="14.87" gradientTransform="matrix(1, 0, 0, 1, 0, 0)" xlink:href="#radial-gradient"/><linearGradient id="linear-gradient-3" x1="962.39" y1="1512.15" x2="1075.27" y2="1512.15" gradientUnits="userSpaceOnUse"><stop offset="0.4" stop-color="#beb5b0"/><stop offset="0.6" stop-color="#aaa09d"/></linearGradient><linearGradient id="linear-gradient-4" x1="664.5" y1="1346.32" x2="664.5" y2="1351.99" gradientUnits="userSpaceOnUse"><stop offset="0" stop-color="#201c17"/><stop offset="0.17" stop-color="#2e2a25" stop-opacity="0.97"/><stop offset="0.44" stop-color="#544e49" stop-opacity="0.9"/><stop offset="0.78" stop-color="#928a85" stop-opacity="0.78"/><stop offset="1" stop-color="#beb5b0" stop-opacity="0.7"/></linearGradient><linearGradient id="linear-gradient-5" x1="962.4" y1="1948.94" x2="1075.28" y2="1948.94" gradientTransform="matrix(1, 0, 0, -1, 0, 3911.8)" xlink:href="#linear-gradient-3"/><linearGradient id="linear-gradient-6" x1="1018.84" y1="1924.85" x2="1018.84" y2="1930.52" gradientTransform="matrix(1, 0, 0, -1, -354.33, 3770.07)" xlink:href="#linear-gradient-4"/><linearGradient id="linear-gradient-7" x1="1044.35" y1="1986.95" x2="1044.35" y2="1986.95" xlink:href="#linear-gradient-4"/><linearGradient id="linear-gradient-8" x1="638.99" y1="1346.61" x2="690.01" y2="1346.61" gradientUnits="userSpaceOnUse"><stop offset="0" stop-color="#645a59"/><stop offset="1" stop-color="#464647"/></linearGradient><linearGradient id="linear-gradient-9" x1="638.99" y1="1365.88" x2="690.01" y2="1365.88" xlink:href="#linear-gradient-8"/><linearGradient id="linear-gradient-10" x1="637.99" y1="1380.62" x2="691.01" y2="1380.62" xlink:href="#linear-gradient-8"/><linearGradient id="linear-gradient-11" x1="638.99" y1="1373.25" x2="653.16" y2="1373.25" gradientUnits="userSpaceOnUse"><stop offset="0" stop-color="#645a59"/><stop offset="0.12" stop-color="#6b6361"/><stop offset="0.32" stop-color="#7f7b78"/><stop offset="0.5" stop-color="#959691"/><stop offset="1" stop-color="#cfd0cc"/></linearGradient><linearGradient id="linear-gradient-12" x1="2620.86" y1="1514.98" x2="2635.03" y2="1514.98" gradientTransform="matrix(1, 0, 0, -1, -1590.69, 3029.97)" gradientUnits="userSpaceOnUse"><stop offset="0" stop-color="#464647"/><stop offset="0.08" stop-color="#4f4e4f"/><stop offset="0.2" stop-color="#676564"/><stop offset="0.35" stop-color="#8f8987"/><stop offset="0.5" stop-color="#bbb2ae"/><stop offset="1" stop-color="#cfd0cc"/></linearGradient><linearGradient id="linear-gradient-13" x1="993.32" y1="1993.17" x2="1044.34" y2="1993.17" gradientTransform="matrix(1, 0, 0, -1, -354.33, 3838.1)" xlink:href="#linear-gradient-8"/><linearGradient id="linear-gradient-14" x1="992.32" y1="2027.19" x2="1045.34" y2="2027.19" gradientTransform="matrix(1, 0, 0, -1, -354.33, 3838.1)" xlink:href="#linear-gradient-8"/><linearGradient id="linear-gradient-15" x1="993.32" y1="2010.18" x2="1007.49" y2="2010.18" gradientTransform="matrix(1, 0, 0, -1, -354.33, 3838.1)" xlink:href="#linear-gradient-11"/><linearGradient id="linear-gradient-16" x1="2620.86" y1="2010.18" x2="2635.03" y2="2010.18" gradientTransform="translate(-1590.69 -40.53)" xlink:href="#linear-gradient-12"/><linearGradient id="linear-gradient-17" x1="650.34" y1="1595.76" x2="678.68" y2="1595.76" gradientUnits="userSpaceOnUse"><stop offset="0" stop-color="#453631"/><stop offset="0.16" stop-color="#cab6ac"/><stop offset="0.29" stop-color="#c6b8a9"/><stop offset="0.3" stop-color="#c5b8a8"/><stop offset="0.5" stop-color="#8b857c"/><stop offset="0.67" stop-color="#989285"/><stop offset="0.72" stop-color="#81786d"/><stop offset="0.79" stop-color="#675b53"/><stop offset="0.86" stop-color="#544740"/><stop offset="0.93" stop-color="#493a35"/><stop offset="1" stop-color="#453631"/></linearGradient><linearGradient id="linear-gradient-18" x1="1018.83" y1="1466.79" x2="1052.85" y2="1466.79" gradientUnits="userSpaceOnUse"><stop offset="0" stop-color="#a5a4a9"/><stop offset="1" stop-color="#a8b5bd"/></linearGradient><linearGradient id="linear-gradient-19" x1="984.82" y1="1466.79" x2="1018.83" y2="1466.79" gradientUnits="userSpaceOnUse"><stop offset="0" stop-color="#8a8d95"/><stop offset="1" stop-color="#b1b7be"/></linearGradient><linearGradient id="linear-gradient-20" x1="644.65" y1="1306.63" x2="684.34" y2="1306.63" gradientUnits="userSpaceOnUse"><stop offset="0" stop-color="#3b3e3d"/><stop offset="0.1" stop-color="#505050"/><stop offset="0.85" stop-color="#838383"/><stop offset="1" stop-color="#3c3d38"/></linearGradient><linearGradient id="linear-gradient-21" x1="1018.84" y1="1971.62" x2="1052.86" y2="1971.62" gradientTransform="matrix(1, 0, 0, -1, 0, 3979.83)" xlink:href="#linear-gradient-18"/><linearGradient id="linear-gradient-22" x1="984.83" y1="1971.62" x2="1018.84" y2="1971.62" gradientTransform="matrix(1, 0, 0, -1, 0, 3979.83)" xlink:href="#linear-gradient-19"/><linearGradient id="linear-gradient-23" x1="998.99" y1="1955.39" x2="1038.68" y2="1955.39" gradientTransform="matrix(1, 0, 0, -1, -354.33, 3838.1)" xlink:href="#linear-gradient-20"/><linearGradient id="linear-gradient-24" x1="690.99" y1="1364.93" x2="705.16" y2="1364.93" gradientTransform="matrix(1, 0, 0, 1, 0, 0)" xlink:href="#linear-gradient"/><linearGradient id="linear-gradient-25" x1="691.01" y1="1826.6" x2="705.18" y2="1826.6" gradientTransform="matrix(1, 0, 0, 1, 0, 0)" xlink:href="#linear-gradient"/></defs><g id="Export_Screen" data-name="Export Screen"><rect class="cls-1" width="2125.98" height="2551.18"/></g><g id="Side_Pistons" data-name="Side Pistons"><g id="Pullers"><g id="Left_Piston" data-name="Left Piston"><g id="Body"><g id="Shadows"><rect class="cls-2" x="721.16" y="1806.2" width="5.67" height="38.97"/><g class="cls-3"><circle class="cls-4" cx="712.07" cy="1806.2" r="14.87"/></g><rect class="cls-5" x="721.16" y="1346.28" width="5.67" height="38.99"/><g class="cls-6"><circle class="cls-7" cx="711.95" cy="1385.27" r="14.87"/></g></g><g id="Solid"><path class="cls-8" d="M970.63,1536a8.24,8.24,0,0,1-8.24-8.24V1488.3h112.88v39.45A8.24,8.24,0,0,1,1067,1536Z" transform="translate(-354.33 -141.73)"/><path class="cls-9" d="M1075,1488.55v39.2a8,8,0,0,1-8,8h-96.4a8,8,0,0,1-8-8v-39.2H1075m.5-.5H962.14v39.7a8.49,8.49,0,0,0,8.49,8.49H1067a8.49,8.49,0,0,0,8.49-8.49v-39.7Z" transform="translate(-354.33 -141.73)"/><rect class="cls-10" x="608.31" y="1346.32" width="112.39" height="5.67"/><rect class="cls-11" x="638.99" y="1334.98" width="51.02" height="11.34"/><rect class="cls-12" x="690.01" y="1334.98" width="31.18" height="11.34"/><rect class="cls-13" x="607.81" y="1334.98" width="31.18" height="11.34"/><line class="cls-14" x1="638.99" y1="1334.98" x2="638.99" y2="1346.32"/><path class="cls-15" d="M962.4,1986.7v-39.45a8.25,8.25,0,0,1,8.24-8.24H1067a8.25,8.25,0,0,1,8.24,8.24v39.45Z" transform="translate(-354.33 -141.73)"/><path class="cls-9" d="M1067,1939.26a8,8,0,0,1,8,8v39.2H962.65v-39.2a8,8,0,0,1,8-8H1067m0-.5h-96.4a8.49,8.49,0,0,0-8.49,8.49V1987h113.38v-39.7a8.49,8.49,0,0,0-8.49-8.49Z" transform="translate(-354.33 -141.73)"/><rect class="cls-16" x="608.32" y="1839.55" width="112.39" height="5.67"/><rect class="cls-11" x="639" y="1845.22" width="51.02" height="11.34"/><rect class="cls-12" x="690.02" y="1845.22" width="31.18" height="11.34"/><rect class="cls-13" x="607.82" y="1845.22" width="31.18" height="11.34"/><line class="cls-14" x1="639" y1="1856.56" x2="639" y2="1845.22"/><path class="cls-17" d="M1044.35,1987" transform="translate(-354.33 -141.73)"/><rect class="cls-18" x="638.99" y="1346.32" width="51.02" height="34.02"/><line class="cls-19" x1="638.99" y1="1380.34" x2="638.99" y2="1346.32"/><line class="cls-20" x1="690.01" y1="1380.34" x2="690.01" y2="1346.32"/><rect class="cls-21" x="638.99" y="1346.32" width="51.02" height="0.57"/><rect class="cls-22" x="638.99" y="1365.6" width="51.02" height="0.57"/><rect class="cls-23" x="637.99" y="1380.34" width="53.02" height="0.57"/><rect class="cls-24" x="653.16" y="1366.16" width="22.68" height="14.17"/><rect class="cls-25" x="638.99" y="1366.16" width="14.17" height="14.17"/><rect class="cls-26" x="1030.17" y="1507.9" width="14.17" height="14.17" transform="translate(1720.18 2888.23) rotate(-180)"/><line class="cls-19" x1="638.99" y1="1811.19" x2="638.99" y2="1845.21"/><line class="cls-20" x1="690.01" y1="1811.19" x2="690.01" y2="1845.21"/><rect class="cls-27" x="638.99" y="1844.64" width="51.02" height="0.57"/><rect class="cls-28" x="637.99" y="1810.62" width="53.02" height="0.57"/><rect class="cls-24" x="653.16" y="1811.19" width="22.68" height="33.45"/><rect class="cls-29" x="638.99" y="1811.19" width="14.17" height="33.45"/><rect class="cls-30" x="1030.17" y="1952.92" width="14.17" height="33.45" transform="translate(1720.18 3797.56) rotate(180)"/><rect class="cls-31" x="650.34" y="1380.9" width="28.35" height="429.72"/><path class="cls-32" d="M986.24,1476.59a1.3,1.3,0,0,1-1.3-1.3V1459.7a2.7,2.7,0,0,1,2.7-2.7H1050a2.7,2.7,0,0,1,2.7,2.7v15.59a1.3,1.3,0,0,1-1.3,1.3Z" transform="translate(-354.33 -141.73)"/><path class="cls-33" d="M1050,1457.12a2.59,2.59,0,0,1,2.58,2.58v15.59a1.18,1.18,0,0,1-1.18,1.18H986.24a1.17,1.17,0,0,1-1.17-1.18V1459.7a2.58,2.58,0,0,1,2.57-2.58H1050m0-.25H987.64a2.83,2.83,0,0,0-2.82,2.83v15.59a1.42,1.42,0,0,0,1.42,1.43h65.18a1.43,1.43,0,0,0,1.43-1.43V1459.7a2.83,2.83,0,0,0-2.83-2.83Z" transform="translate(-354.33 -141.73)"/><path class="cls-34" d="M1052.85,1460.53v15.22c0,.53-7.62,1-17,1s-17-.43-17-1v-15.22c0-2,7.62-3.66,17-3.66S1052.85,1458.51,1052.85,1460.53Z" transform="translate(-354.33 -141.73)"/><path class="cls-35" d="M1018.83,1460.53v15.22c0,.53-7.61,1-17,1s-17-.43-17-1v-15.22c0-2,7.61-3.66,17-3.66S1018.83,1458.51,1018.83,1460.53Z" transform="translate(-354.33 -141.73)"/><path class="cls-36" d="M1018.83,1460.53a58.16,58.16,0,0,1,0,15.22,58.16,58.16,0,0,1,0-15.22Z" transform="translate(-354.33 -141.73)"/><rect class="cls-37" x="644.65" y="1298.13" width="39.69" height="17.01"/><path class="cls-38" d="M1033,1451.33v1.14c1.79.45,2.83,1,2.83,1.57s-1,1.12-2.83,1.56v1.27h-28.35v-1.27c-1.79-.44-2.83-1-2.83-1.56s1-1.12,2.83-1.57v-1.14c-1.79-.44-2.83-1-2.83-1.56s1-1.12,2.83-1.57v-1.1c-1.8-.45-2.84-1-2.84-1.57s1-1.12,2.84-1.57v-4.1H1033v4.1c1.79.45,2.83,1,2.83,1.57s-1,1.12-2.83,1.56v1.11c1.79.45,2.83,1,2.83,1.57S1034.8,1450.89,1033,1451.33Z" transform="translate(-354.33 -141.73)"/><path class="cls-32" d="M987.65,2018a2.71,2.71,0,0,1-2.7-2.71v-15.59a1.3,1.3,0,0,1,1.3-1.29h65.18a1.3,1.3,0,0,1,1.3,1.29v15.59a2.71,2.71,0,0,1-2.7,2.71Z" transform="translate(-354.33 -141.73)"/><path class="cls-33" d="M1051.43,1998.54a1.18,1.18,0,0,1,1.18,1.17v15.59a2.58,2.58,0,0,1-2.58,2.58H987.65a2.57,2.57,0,0,1-2.57-2.58v-15.59a1.17,1.17,0,0,1,1.17-1.17h65.18m0-.25H986.25a1.42,1.42,0,0,0-1.42,1.42v15.59a2.82,2.82,0,0,0,2.82,2.83H1050a2.83,2.83,0,0,0,2.83-2.83v-15.59a1.43,1.43,0,0,0-1.43-1.42Z" transform="translate(-354.33 -141.73)"/><path class="cls-39" d="M1052.86,2014.47v-15.22c0-.53-7.62-1-17-1s-17,.43-17,1v15.22c0,2,7.62,3.66,17,3.66S1052.86,2016.49,1052.86,2014.47Z" transform="translate(-354.33 -141.73)"/><path class="cls-40" d="M1018.84,2014.47v-15.22c0-.53-7.61-1-17-1s-17,.43-17,1v15.22c0,2,7.61,3.66,17,3.66S1018.84,2016.49,1018.84,2014.47Z" transform="translate(-354.33 -141.73)"/><path class="cls-36" d="M1018.84,2014.47a58.16,58.16,0,0,1,0-15.22,58.16,58.16,0,0,1,0,15.22Z" transform="translate(-354.33 -141.73)"/><rect class="cls-41" x="644.66" y="1876.41" width="39.69" height="12.6"/><path class="cls-38" d="M1004.67,2018.13v1.14c-1.79.44-2.83,1-2.83,1.56s1,1.12,2.83,1.57v1.1c-1.8.45-2.84,1-2.84,1.57s1,1.12,2.84,1.57v4.1H1033v-4.1c1.79-.45,2.83-1,2.83-1.57s-1-1.12-2.83-1.56v-1.11c1.79-.45,2.83-1,2.83-1.57s-1-1.12-2.83-1.56v-1.14Z" transform="translate(-354.33 -141.73)"/><rect class="cls-42" x="690.99" y="1348.95" width="14.17" height="31.96"/><rect class="cls-43" x="691.01" y="1810.62" width="14.17" height="31.96"/></g></g></g></g></g></svg>