<svg xmlns="http://www.w3.org/2000/svg" viewBox="0 0 2125.98 2551.18"><defs><style>.cls-1{fill:none;}.cls-2{fill:#900;}</style></defs><g id="Export_Screen" data-name="Export Screen"><rect class="cls-1" width="2125.98" height="2551.18"/></g><g id="Arm"><g id="Colored_Piece" data-name="Colored Piece"><g id="Unverified"><path class="cls-2" d="M898.92,2120.31h-3.51a54.72,54.72,0,0,0-6.44.79l.54,2.95a52.78,52.78,0,0,1,9.41-.85v-3Zm-10,.91h0l.54,2.95h.05l-.54-3Zm-9.67,2.7,0,0,1.07,2.8.05,0-1.07-2.8Zm-.1,0a53.55,53.55,0,0,0-6.39,2.93h-.06l-.13.06h-.18l0,0h-.19l-.09.05H872c-.62.35-1.22.7-1.82,1.06l1.57,2.56a51.55,51.55,0,0,1,8.47-4.16l-1.07-2.8Zm-9,4.43,0,0,1.57,2.56,0,0-1.56-2.56Zm-8.06,6h0l0,0,2,2.23,0,0-2-2.24Zm-.08.08q-1.11,1-2.16,2h0l-.2.21h0l0,0h0l0,0h0l-.14.15h0v0h-.09l-.11.11h-.09v0h0v0h0v0h0l0,0h-.22l0,0h-.2l0,0h-.2l-.05,0h-.16l-.09.1h0v0h0v0h-.11l-.07.09h0v0h0v0h0v0h0l-.07.09h0v0h-.12l0,0h0l-.05.05h-.16l-.06.07H857l0,.05h-.15v0h0l0,0h-.16l0,0h0l0,.06h0v0h0v0h0v0h0v0h0l-.15.17h0l0,0h0c-.34.42-.68.85-1,1.28l2.37,1.84a52,52,0,0,1,6.43-6.92l-2-2.23Zm-6.84,7.35h0v0h0l2.37,1.83,0,0-2.38-1.84Zm-5.39,8.47h0l0,0h0l2.67,1.37,0,0-2.66-1.38Zm0,.1c-.64,1.24-1.24,2.51-1.78,3.81h0v0h0v0h0v0h0v0h0v0h0l0,.09h0v0h0v0h0v0h0v0h0v0h0l0,.08h0v0h-.06v0h0v0h0v0h0v0h0v0h0v0h0l0,0h0v0h0v0h0v0h0v0h0l-.06.14h0v0h0v0h0v0h0v0h0c-.53,1.35-1,2.73-1.43,4.13l2.87.86a52.2,52.2,0,0,1,3.54-8.75l-2.67-1.37Zm-3.75,9.31v0h0v0l2.87.85,0,0-2.87-.86Zm-2,9.84h0v.05l3,.32v0l-3-.33Zm0,.11c-.17,1.58-.27,3.18-.3,4.79h0v0h0v0h0v0h0v0h0v0h0v0h0v.22h0v0h0v0h0v0h0v0h0v0h0v0h0v0h0v0h0v0h0v.08h0v0h0v0h0v0h0v0h0v0h0v0h0v0h0v0h0v0h0v0h0v0h0v0h0v0h0v0h0v0h0v0h0v0h0v0h0v0h0v0h0v0h0v0h0v0h0v0h0v0h0v0h0v0h0v0h0v0h0v0h0v0h0v.05h0v0h0v0h0v0h0v0h0v0h0v.06h0v0h0v0h0v0h0v0h0v0h0v0h0v0h0v0h0v0h0v0h0v.06h0v.06h0v0h0v0h0v0h0v.06h0v.06h0v0h0v0h0v0h0v.06h0v0h0v0h0v0h0v0h0v0h0v.06h0v0h0v0h0v0h0v0h0v0h0v.06h0v0h0v0h0v0h0v0h0v0h0v0h0v0h0v0h0v0h0v0h0v0h0v0h0v0h0v0h0v0h0v0h0v.06h0v0h0v0h0v0h0v0h0v0h0v0h0v.06h0v.07h0c0,.24,0,.49,0,.73l3-.22c-.09-1.26-.13-2.55-.13-3.82a55.56,55.56,0,0,1,.29-5.63l-3-.32Zm2.83,9.83-3,.21v.06l3-.22v-.05Zm1.55,9.36-2.91.76,0,0,2.9-.76v-.05Zm0,.1-2.9.77c.3,1.13.63,2.25,1,3.36h0v0h0v0h0v0h0l0,.14h0v0h0v0h0v0h0v0h0v0h0v0h0v0h0l0,.08h0v0h0v0h0v0h0v0h0v0h0l0,.06h0v0h0v0h0v0h0v0h0v0h0l0,.15h0v0h0v0h0v0h0l0,0h0c.58,1.62,1.24,3.2,2,4.74l2.72-1.27a52.1,52.1,0,0,1-3.23-8.88Zm3.25,8.92-2.71,1.28h0l0,0,2.71-1.28,0-.05Zm4.81,8.19-2.43,1.75,0,0,2.43-1.75,0,0Zm.06.08-2.43,1.76a54.66,54.66,0,0,0,6.55,7.54l2.08-2.16a52.65,52.65,0,0,1-6.2-7.14Zm6.23,7.18-2.08,2.16,0,0,2.08-2.17,0,0Zm7.42,5.93-1.65,2.5h0l0,0h0l1.65-2.5,0,0Zm.09.06-1.65,2.5.06,0h.14l0,0h.2l.14.09h0a55.36,55.36,0,0,0,7.56,4.05h.37l.31.13,1.17-2.77a52,52,0,0,1-8.32-4.45Zm8.37,4.47-1.17,2.77.05,0,1.17-2.77,0,0Zm9,2.88-.64,2.93h0l.64-2.93,0,0Zm.11,0-.64,2.93h0l.16,0h0l.12,0h.07l.1,0h.09l.08,0h.11l.08,0h1.19l.07,0h.47l.15,0h0a54.69,54.69,0,0,0,6.7.69H897l.1-3a52.42,52.42,0,0,1-9.37-1.16Zm9.42,1.17-.1,3h.06l.09-3Zm9.54-.55h-.05l.44,3h0l-.44-3Zm9.22-2.25a51.35,51.35,0,0,1-9.17,2.24l.45,3c.66-.1,1.32-.21,2-.33h.05l.1,0h.56l.11,0h0a56.07,56.07,0,0,0,6.87-1.87l-1-2.84Zm.1,0h0l1,2.84h0l-1-2.83Zm8.65-3.92,0,0,1.47,2.61h0l0,0-1.48-2.61Zm7.8-5.41a52.35,52.35,0,0,1-7.75,5.39l1.48,2.61q1.45-.82,2.85-1.74h.12l.08-.05h.22l.06,0h.16l.2-.13h0c1.14-.77,2.25-1.59,3.33-2.45h.08l.1-.08h.19l0,0v0h.18l.18-.14h0l.38-.32-1.93-2.3Zm.08-.07,0,0,1.93,2.29h0l-1.93-2.3Zm6.69-6.75,0,0,2.31,1.92,0,0-2.31-1.92Zm5.36-7.83a52.1,52.1,0,0,1-5.33,7.79l2.32,1.91c.57-.7,1.13-1.41,1.67-2.13h0l0,0h0l.12-.16h0v0h0v0h0v0h0l0-.07h0v0h.14l0,0h0v0h.09v0h0l.11-.15h0v0h0a56.58,56.58,0,0,0,3.17-5L944.6,2201Zm0-.1,0,.05,2.62,1.46h0l0,0h0l-2.63-1.46Zm3.84-8.68,0,.05,2.84,1,0-.05h0l-2.84-1Zm2.18-9.24a51.6,51.6,0,0,1-2.17,9.19l2.85,1h0l0-.06h0v0h0v0h0l0-.06h0v0h0v0h0v0h0v0h0l0-.1h0v0h0v0h0v0h0v0h0v0h0l0-.1h0v0h0v0h0v0h0v0h0l0-.12h0v0h0v0h0v0h0v0h0a1.42,1.42,0,0,1,0-.16h0l.06-.22h0v0h0l.24-.82h0l.36-1.32h0l0-.16h0c0-.06,0-.11,0-.17h0l.06-.25h0v0h0v0h0l0-.16h0v0h0a.94.94,0,0,0,0-.16h0v0h0v0h0v0h0l0-.08h0v0h0v0h0v0h0v0h0v0h0l0-.08h0v0h0v0h0v0h0v0h0v0h0l0-.06h0v0h0v0h0v0h0v0h0v0h0v0h0v0h0v0h0v0h0v0h0v0h0v0h0v0h0v0h0v0h0v0h0v0h0v0h0v0h0v0h0v0h0v0h0v0h0v-.08h0v0h0l0-.11h0v0h0l0-.14h0v0h0v0h0v0h0c.18-.92.33-1.84.46-2.77l-3-.42Zm0-.1v.05l3,.42v-.05l-3-.42Zm3.46-9.62-3,.13v0l3-.12v-.06Zm-1.32-9.95-2.92.66a52.52,52.52,0,0,1,1.24,9.36l3-.12c0-.46,0-.92-.08-1.38h0v0h0v-.11h0v0h0v0h0v0h0v0h0v0h0v0h0v0h0v-.1h0v0h0v0h0v0h0v0h0a54.4,54.4,0,0,0-1.2-7.92Zm0-.11-2.92.67v0l2.92-.66v-.06Zm-3.12-9.54-2.76,1.19,0,0,2.76-1.19,0,0Zm-4.81-8.82-2.49,1.67a52.85,52.85,0,0,1,4.52,8.29l2.76-1.19c-.35-.81-.73-1.61-1.11-2.4h0v0h0v0h0v0h0v0h0l-.07-.14h0v0h0v0h0l0-.06h0v0h-.08v0h0l0-.07h0v0h0v0h0v0h0l0-.06h0v0h0v0h0v0h0l0-.08h0v0h0v0h0v0h0l-.06-.12h0v0h0v0h0v0h0l-.09-.17h0v0h0v0h0l0,0h0c-.82-1.53-1.72-3-2.68-4.44Zm-.06-.09-2.49,1.68,0,0,2.49-1.67,0,0Zm-6.33-7.79-2.15,2.1,0,0,2.15-2.09,0,0Zm-7.64-6.52-1.73,2.44a53.16,53.16,0,0,1,7.18,6.14l2.15-2.1a55.35,55.35,0,0,0-7.6-6.48Zm-.09-.07-1.73,2.45.05,0,1.73-2.45h0l0,0Zm-8.69-5-1.26,2.72.05,0,1.26-2.73h0l0,0Zm-9.46-3.36-.74,2.91a51.9,51.9,0,0,1,8.89,3.15l1.26-2.72c-.61-.28-1.23-.55-1.85-.81h0l-.07,0h0l-.14-.06h-.11l-.11,0h-.15l-.06,0h-.17l-.07,0h-.17l-.06,0h-.65l0,0h-1.15l0,0H917l-.09,0h-.16l-.07,0h0l0,0h-.13l-.1,0h-.15l-.07,0H916l-.09,0h-.15l-.09,0h-.16l-.1,0h-.14l-.09,0h-.17l-.07,0h-.18l-.06,0h-.18l0,0h-.93l-.08,0h-.15l-.12,0h-.06l-.56-.15Zm-.11,0-.73,2.91.05,0,.73-2.91h0Zm-9.92-1.56-.19,3h.05l.2-3Zm-3.66-.12v3c1.14,0,2.28,0,3.41.11l.2-3c-.83,0-1.66-.09-2.49-.11h-1.12Z" transform="translate(-354.33 -141.73)"/><path class="cls-2" d="M893.93,2188a23.15,23.15,0,0,1,1-7.33,22.51,22.51,0,0,1,2.53-5.33q1.51-2.28,3-4.22a24.71,24.71,0,0,0,2.52-3.95,10.06,10.06,0,0,0,1-4.59v0a6.66,6.66,0,0,0-1.57-4.74,5.64,5.64,0,0,0-4.37-1.69,5.22,5.22,0,0,0-4.42,2.09,10,10,0,0,0-1.6,5.92v0h-7.27v0q.24-7,3.71-10.82t9.51-3.84q6.32,0,9.8,3.43t3.48,9.69v0a14.68,14.68,0,0,1-.73,4.87,16.32,16.32,0,0,1-1.9,3.78c-.78,1.13-1.6,2.23-2.46,3.31a32.65,32.65,0,0,0-2.46,3.48,17.78,17.78,0,0,0-1.9,4.25,19.47,19.47,0,0,0-.74,5.7Zm-.18,13.11v-7.53h7.53v7.53Z" transform="translate(-354.33 -141.73)"/></g></g></g></svg>